<?xml version="1.0" encoding="utf-8"?>
<!-- Generator: Adobe Illustrator 26.0.0, SVG Export Plug-In . SVG Version: 6.00 Build 0)  -->
<svg version="1.1" id="Layer_1" fill="#b5b5b5" xmlns="http://www.w3.org/2000/svg" xmlns:xlink="http://www.w3.org/1999/xlink" x="0px" y="0px"
	 viewBox="0 0 50 50" style="enable-background:new 0 0 50 50;" xml:space="preserve">
<style type="text/css">
	.st0{fill:#b5b5b5;}
</style>
<g>
	<g>
		<path d="M26.3,9.9v2.6c0,0.3-0.2,0.5-0.5,0.5h-18c-0.3,0-0.5-0.2-0.5-0.5V9.7c0-0.2,0.1-0.4,0.3-0.4l8.7-4.9c0.5-0.3,0.3-1-0.2-1
			H7.8c-0.3,0-0.5-0.2-0.5-0.5V0.5C7.3,0.2,7.5,0,7.8,0h18c0.3,0,0.5,0.2,0.5,0.5v2.6c0,0.2-0.1,0.4-0.3,0.4l-8.9,4.9
			c-0.5,0.3-0.3,1,0.2,1h8.4C26.1,9.4,26.3,9.6,26.3,9.9z"/>
	</g>
	<path d="M0,0.9v11.3C0,12.6,0.4,13,0.9,13h1.9c0.5,0,0.9-0.4,0.9-0.9V0.9C3.7,0.4,3.3,0,2.8,0H0.9C0.4,0,0,0.4,0,0.9z"/>
	<path d="M29.9,0.9v11.3c0,0.5,0.4,0.9,0.9,0.9h1.9c0.5,0,0.9-0.4,0.9-0.9V0.9c0-0.5-0.4-0.9-0.9-0.9h-1.9C30.3,0,29.9,0.4,29.9,0.9
		z"/>
	<path d="M37.2,0.9v11.3c0,0.5,0.4,0.9,0.9,0.9H40c0.5,0,0.9-0.4,0.9-0.9V0.9C40.9,0.4,40.5,0,40,0h-1.9C37.6,0,37.2,0.4,37.2,0.9z"
		/>
	<path class="st0" d="M10.5,14.6H9.2c-1,0-1.9,0.9-1.9,1.8V48c0,1.1,0.9,2,1.8,2h1.3c1,0,1.9-0.9,1.9-1.9V16.4
		C12.4,15.4,11.5,14.6,10.5,14.6z"/>
	<path class="st0" d="M16.6,14.6c-0.7,0-1.2,0.6-1.2,1.2v32.9C15.3,49.4,16,50,16.6,50c0.6,0,1.3-0.6,1.3-1.2V15.7
		C17.9,15.1,17.4,14.6,16.6,14.6z"/>
	<path class="st0" d="M2.2,14.6H1.4c-0.7,0-1.2,0.9-1.2,1.8V48c0,1.1,0.6,2,1.2,2h0.9c0.7,0,1.2-0.9,1.2-1.9V16.4
		C3.5,15.4,2.9,14.6,2.2,14.6z"/>
	<path class="st0" d="M39.5,14.6h-0.9c-0.8,0-1.4,0.9-1.4,1.9v31.7c0,1,0.6,1.9,1.4,1.9h0.9c0.8,0,1.4-0.9,1.4-1.9V16.4
		C40.9,15.4,40.3,14.6,39.5,14.6z"/>
	<path class="st0" d="M31.8,14.6c-0.7,0-1.3,0.6-1.3,1.3v32.9c0,0.7,0.6,1.3,1.3,1.3s1.3-0.6,1.3-1.3V15.8
		C33,15.1,32.5,14.6,31.8,14.6z"/>
	<path class="st0" d="M24.1,14.6h-1.3c-1,0-1.9,0.9-1.9,1.9v31.7c0,1,0.9,1.9,1.9,1.9h1.3c1,0,1.9-0.9,1.9-1.9V16.4
		C26,15.4,25.1,14.6,24.1,14.6z"/>
</g>
</svg>
